<?xml version="1.0" encoding="UTF-8"?><svg xmlns="http://www.w3.org/2000/svg" viewBox="0 0 162.55 34"><defs><style>.g{fill:#fff;}</style></defs><g id="a"/><g id="b"><g id="c"><g id="d"><g id="e"><path id="f" class="g" d="M32.94,1.55c-3.97-2.48-9.19-1.89-13.85,1.04C14.44-.33,9.21-.93,5.25,1.55-1.02,5.47-1.78,15.56,3.55,24.09c3.93,6.29,10.07,9.97,15.54,9.91,5.47,.07,11.62-3.62,15.54-9.91,5.32-8.53,4.57-18.62-1.7-22.54ZM6.43,22.29c-1.1-1.74-1.93-3.64-2.46-5.63-.47-1.73-.65-3.52-.53-5.31,.24-3.15,1.52-5.61,3.61-6.91,2.09-1.31,4.86-1.39,7.8-.22,.44,.18,.88,.38,1.31,.61-1.64,1.49-3.06,3.2-4.23,5.08-3.24,5.18-4.22,10.94-3.09,15.54-.9-.97-1.71-2.03-2.41-3.15h0Zm27.79-5.63c-.53,1.99-1.36,3.89-2.46,5.63-.7,1.13-1.51,2.18-2.41,3.16,1.01-4.12,.32-9.16-2.15-13.9-.08-.16-.22-.27-.39-.32-.17-.05-.35-.02-.5,.08l-7.72,4.82c-.14,.09-.24,.23-.28,.39-.04,.16,0,.33,.08,.48l1.13,1.81c.09,.14,.23,.24,.39,.28s.33,0,.48-.08l5-3.13c.16,.49,.32,.97,.45,1.46,.47,1.73,.65,3.52,.54,5.3-.24,3.15-1.52,5.61-3.61,6.91-1.08,.66-2.31,1.02-3.58,1.04h-.16c-1.26-.02-2.5-.38-3.58-1.04-2.09-1.31-3.38-3.76-3.61-6.91-.12-1.79,.06-3.58,.53-5.31,1.08-4,3.33-7.59,6.44-10.31,1.34-1.18,2.88-2.13,4.53-2.81,2.94-1.17,5.7-1.09,7.8,.22s3.37,3.76,3.61,6.91c.12,1.79-.06,3.58-.53,5.31h0Zm39.85-3.77c-4.06,0-7.34,3.17-7.34,7.2s3.28,7.12,7.34,7.12,7.37-3.11,7.37-7.12-3.28-7.2-7.37-7.2h0Zm0,10.56c-1.87,0-3.3-1.51-3.3-3.38s1.42-3.41,3.3-3.41,3.32,1.54,3.32,3.41-1.42,3.39-3.32,3.39h0ZM90.58,7.36h-7.47c-.16,0-.32,.06-.44,.18s-.18,.27-.17,.44V26.18c-.01,.17,.05,.33,.16,.46,.12,.12,.28,.19,.45,.19h7.47c5.98,0,10.13-3.97,10.13-9.76s-4.15-9.71-10.13-9.71Zm.18,15.62h-4.09V11.2h4.09c3.31,0,5.59,2.47,5.59,5.87s-2.28,5.92-5.59,5.92Zm24.82-9.7h-2.81c-.32,.03-.57,.29-.58,.61v.83c-.64-1.06-2.08-1.84-3.88-1.84-3.5,0-6.78,2.75-6.78,7.15s3.25,7.17,6.76,7.17c1.81,0,3.28-.78,3.92-1.83v.86c0,.32,.26,.58,.58,.58h2.81c.16,0,.31-.06,.42-.17,.11-.11,.17-.26,.17-.42V13.9c0-.16-.06-.32-.17-.43-.11-.12-.26-.18-.43-.18h0Zm-6.53,10.2c-1.86,0-3.26-1.43-3.26-3.41s1.4-3.41,3.26-3.41,3.26,1.43,3.26,3.41-1.4,3.41-3.26,3.41h0Zm22.29-16.12h-2.81c-.16,0-.31,.05-.43,.16-.11,.11-.18,.26-.18,.42v6.73c-.65-1-2.11-1.78-3.95-1.78-3.48,0-6.7,2.75-6.7,7.15s3.25,7.17,6.76,7.17c1.81,0,3.17-.78,3.92-1.83v.86c0,.32,.26,.58,.58,.58h2.81c.16,0,.31-.06,.42-.17,.11-.11,.17-.26,.17-.42V7.95c0-.16-.05-.31-.17-.42-.11-.11-.26-.17-.42-.17Zm-6.53,16.15c-1.85,0-3.24-1.44-3.24-3.45s1.39-3.45,3.24-3.45,3.24,1.44,3.24,3.45-1.38,3.45-3.24,3.45Zm22.29-16.15h-2.8c-.16,0-.31,.05-.43,.16s-.18,.26-.18,.42v6.73c-.64-1-2.11-1.78-3.95-1.78-3.48,0-6.7,2.75-6.7,7.15s3.25,7.17,6.76,7.17c1.81,0,3.17-.78,3.92-1.83v.86c0,.32,.26,.58,.58,.58h2.8c.16,0,.31-.06,.42-.17,.11-.11,.17-.26,.17-.42V7.95c0-.16-.05-.31-.16-.42s-.26-.17-.42-.17Zm-6.53,16.15c-1.85,0-3.24-1.44-3.24-3.45s1.39-3.45,3.24-3.45,3.24,1.44,3.24,3.45-1.38,3.45-3.23,3.45h0Zm21.91-9.28l-4.19,14.37c-.81,2.56-2.61,4.09-5.42,4.09-1.28,0-2.44-.26-3.35-.78-.53-.3-.97-.58-.97-1.02,0-.28,.09-.42,.25-.67l.83-1.25c.23-.35,.41-.46,.66-.46,.2,0,.39,.07,.55,.19,.52,.34,1.01,.63,1.75,.63,.86,0,1.52-.28,1.88-1.31l.36-1.19h-1.7c-.42,0-.65-.25-.75-.58l-3.75-12.01c-.14-.47-.01-.95,.68-.95h2.95c.36,0,.61,.12,.77,.64l2.77,9.67,2.59-9.67c.08-.33,.31-.64,.75-.64h2.8c.55,0,.72,.39,.53,.95Zm-96.81,4.27v7.68c0,.17-.06,.33-.18,.45s-.28,.19-.45,.18h-2.32c-.17,0-.33-.06-.45-.18-.12-.12-.19-.28-.18-.45v-2.01c-1.47,1.86-4.03,3.03-6.92,3.03-5.43,0-9.68-4.09-9.68-9.91s4.58-10.22,10.38-10.22c4.28,0,7.69,1.84,9.21,5.54,.04,.1,.07,.2,.07,.31,0,.17-.11,.31-.49,.44l-2.71,1.04c-.16,.07-.35,.07-.51,0-.14-.09-.26-.22-.32-.37-.97-1.85-2.7-3.1-5.36-3.1-3.45,0-5.92,2.69-5.92,6.19s2.1,6.17,6.02,6.17c2.06,0,3.7-.97,4.47-2.04h-2.44c-.17,0-.33-.06-.45-.18s-.19-.28-.18-.45v-2.09c0-.17,.06-.33,.18-.45,.12-.12,.28-.19,.45-.18h7.16c.17,0,.33,.05,.45,.17,.12,.11,.19,.27,.19,.44Z"/></g></g></g></g></svg>