<?xml version="1.0" encoding="utf-8"?>
<!-- Generator: Adobe Illustrator 26.1.0, SVG Export Plug-In . SVG Version: 6.00 Build 0)  -->
<svg version="1.1" id="Layer_1" xmlns="http://www.w3.org/2000/svg" xmlns:xlink="http://www.w3.org/1999/xlink" x="0px" y="0px"
	 viewBox="0 0 166 34" style="enable-background:new 0 0 166 34;" xml:space="preserve">
<style type="text/css">
	.st0{fill:#131313;}
</style>
<path class="st0" d="M33.3,1.5c-4-2.5-9.2-1.9-13.8,1c-4.6-2.9-9.9-3.5-13.8-1c-6.3,3.9-7,14-1.7,22.5c4,6.3,10.1,10,15.5,9.9
	c5.5-0.1,11.6-3.6,15.5-9.9C40.3,15.6,39.6,5.5,33.3,1.5z M6.8,22.3c-1.1-1.7-1.9-3.6-2.5-5.6c-0.5-1.7-0.7-3.5-0.5-5.3
	C4,8.2,5.3,5.8,7.4,4.4s4.9-1.4,7.8-0.2c0.4,0.2,0.9,0.4,1.3,0.6c-1.6,1.5-3.1,3.2-4.2,5.1C9,15.1,8.1,20.9,9.2,25.5
	C8.3,24.5,7.5,23.4,6.8,22.3z M34.6,16.7c-0.5,2-1.4,3.9-2.5,5.6c-0.7,1.1-1.5,2.2-2.4,3.2c1-4.7,0.2-9.7-2.2-13.9
	c-0.2-0.3-0.5-0.4-0.8-0.3c0,0,0,0,0,0l0,0L19,16.1c-0.3,0.2-0.4,0.5-0.2,0.8c0,0,0,0,0,0l0,0l1.1,1.8c0.2,0.3,0.6,0.4,0.9,0.2
	c0,0,0,0,0,0l5-3.1c0.2,0.5,0.3,1,0.5,1.5c0.5,1.7,0.7,3.5,0.5,5.3c-0.2,3.2-1.5,5.6-3.6,6.9c-1.1,0.6-2.3,1-3.6,1h-0.2
	c-1.3,0-2.5-0.4-3.6-1c-2.1-1.3-3.4-3.8-3.6-6.9c-0.1-1.8,0.1-3.6,0.5-5.3c1.1-4,3.3-7.6,6.5-10.3c1.3-1.2,2.9-2.1,4.5-2.8
	c2.9-1.2,5.7-1.1,7.8,0.2s3.4,3.8,3.6,6.9C35.2,13.1,35.1,14.9,34.6,16.7z"/>
<path class="st0" d="M74.4,12.9c4,0.1,7.1,3.4,7,7.3c-0.1,4-3.4,7.1-7.3,7c-3.9-0.1-7-3.3-7-7.1C67.1,16.1,70.4,12.9,74.4,12.9
	C74.4,12.9,74.4,12.9,74.4,12.9 M74.4,23.4c1.9,0.1,3.4-1.4,3.5-3.3c0.1-1.9-1.4-3.4-3.3-3.5c-1.9-0.1-3.4,1.4-3.5,3.3
	c0,0,0,0.1,0,0.1C71.1,21.9,72.5,23.4,74.4,23.4C74.4,23.4,74.4,23.4,74.4,23.4 M101,17.1c0,5.8-4.1,9.8-10.1,9.8h-7.4
	c-0.3,0-0.6-0.3-0.6-0.6V8c0-0.3,0.3-0.6,0.6-0.6c0,0,0,0,0,0h7.5C96.9,7.3,101.1,11.2,101,17.1 M96.7,17.1c0-3.4-2.3-5.9-5.6-5.9
	H87V23h4.1c3.1,0,5.6-2.5,5.6-5.6C96.7,17.3,96.7,17.2,96.7,17.1 M108.6,12.9c1.5-0.1,3,0.6,3.9,1.8v-0.8c0-0.3,0.3-0.6,0.6-0.6h2.8
	c0.3,0,0.6,0.3,0.6,0.6c0,0,0,0,0,0l0,0v12.4c0,0.3-0.2,0.6-0.6,0.6h-2.8c-0.3,0-0.6-0.3-0.6-0.6v0v-0.9c-0.9,1.2-2.4,1.9-3.9,1.8
	c-3.8-0.1-6.8-3.2-6.8-7c0-0.1,0-0.1,0-0.2c-0.2-3.8,2.8-7,6.6-7.1C108.5,12.9,108.6,12.9,108.6,12.9 M109.4,23.5
	c1.8,0,3.3-1.4,3.3-3.2c0-0.1,0-0.1,0-0.2c0-1.8-1.5-3.3-3.3-3.3s-3.3,1.5-3.3,3.3c-0.1,1.8,1.3,3.3,3.1,3.4
	C109.2,23.5,109.3,23.5,109.4,23.5 M124.3,12.9c1.5-0.1,3,0.6,3.9,1.8V7.9c0-0.3,0.3-0.6,0.6-0.6c0,0,0,0,0,0h2.8
	c0.3,0,0.6,0.2,0.6,0.6v18.3c0,0.3-0.2,0.6-0.5,0.6c0,0,0,0,0,0h-2.8c-0.3,0-0.6-0.3-0.6-0.6v-0.9c-0.9,1.2-2.4,1.9-3.9,1.8
	c-3.8-0.1-6.8-3.2-6.8-7c0-0.1,0-0.1,0-0.2c-0.2-3.8,2.7-6.9,6.5-7.1C124.2,12.9,124.2,12.9,124.3,12.9 M125.2,23.5
	c1.8,0,3.2-1.5,3.2-3.2c0-0.1,0-0.1,0-0.2c0.1-1.8-1.2-3.3-3-3.5c-1.8-0.1-3.3,1.2-3.5,3c0,0.2,0,0.3,0,0.5c-0.1,1.8,1.3,3.3,3,3.4
	C125,23.5,125.1,23.5,125.2,23.5 M140.1,12.9c1.5-0.1,3,0.6,3.9,1.8V7.9c0-0.3,0.3-0.6,0.6-0.6h2.8c0.3,0,0.6,0.2,0.6,0.6
	c0,0,0,0,0,0v18.3c0,0.3-0.2,0.6-0.5,0.6c0,0,0,0,0,0h-2.8c-0.3,0-0.6-0.3-0.6-0.6v0v-0.9c-0.9,1.2-2.4,1.9-4,1.8
	c-3.8-0.1-6.8-3.2-6.8-7c0-0.1,0-0.1,0-0.2c-0.2-3.8,2.7-6.9,6.5-7.1C139.9,12.9,140,12.9,140.1,12.9 M140.9,23.5
	c1.8,0,3.2-1.5,3.2-3.3c0,0,0-0.1,0-0.1c0.1-1.8-1.2-3.3-3-3.5c-1.8-0.1-3.3,1.2-3.5,3c0,0.2,0,0.3,0,0.5c-0.1,1.8,1.3,3.3,3,3.4
	C140.7,23.5,140.8,23.5,140.9,23.5 M162.3,13.3h-2.8c-0.4,0-0.7,0.3-0.8,0.6l-2.6,9.7l-2.8-9.7c-0.2-0.5-0.4-0.6-0.8-0.6h-2.9
	c-0.7,0-0.8,0.5-0.7,0.9l3.8,12c0.1,0.3,0.4,0.6,0.7,0.6h1.7l-0.4,1.2c-0.2,0.8-1,1.4-1.9,1.3c-0.6,0-1.2-0.2-1.7-0.6
	c-0.2-0.1-0.4-0.2-0.6-0.2c-0.3,0-0.4,0.1-0.7,0.5l-0.8,1.2c-0.2,0.2-0.2,0.4-0.3,0.7c0,0.4,0.4,0.7,1,1c1,0.5,2.2,0.8,3.4,0.8
	c2.5,0.1,4.8-1.6,5.4-4.1l4.2-14.4C163,13.7,162.9,13.3,162.3,13.3z M62.4,24.2c-1.7,2-4.3,3.1-6.9,3c-5.3,0.1-9.6-4.1-9.7-9.4
	c0-0.2,0-0.4,0-0.5C45.7,11.7,50.1,7.2,55.6,7c0.2,0,0.4,0,0.5,0c4.3,0,7.7,1.8,9.2,5.5c0,0.1,0.1,0.2,0.1,0.3
	c0,0.2-0.1,0.3-0.5,0.4l-2.7,1c-0.2,0.1-0.3,0.1-0.5,0c-0.1-0.1-0.3-0.2-0.3-0.4c-1-2-3.1-3.2-5.4-3.1c-3.3,0-5.9,2.6-5.9,5.9
	c0,0.1,0,0.2,0,0.3c0,3.4,2.1,6.2,6,6.2c1.7,0.1,3.4-0.7,4.5-2h-2.4c-0.3,0-0.6-0.3-0.6-0.6v-2c0-0.3,0.3-0.6,0.6-0.6c0,0,0,0,0,0
	h7.2c0.3,0,0.6,0.2,0.6,0.6c0,0,0,0,0,0v7.7c0,0.3-0.3,0.6-0.6,0.6c0,0,0,0,0,0h-2.3c-0.3,0-0.6-0.3-0.6-0.6c0,0,0,0,0,0V24.2
	L62.4,24.2z"/>
</svg>
